<?xml version="1.0" encoding="UTF-8"?>
<svg width="208px" height="72px" viewBox="0 0 208 72" version="1.1" xmlns="http://www.w3.org/2000/svg" xmlns:xlink="http://www.w3.org/1999/xlink">
    <!-- Generator: Sketch 52.2 (67145) - http://www.bohemiancoding.com/sketch -->
    <title>app_store</title>
    <desc>Created with Sketch.</desc>
    <defs>
        <polygon id="path-1" points="0.0072 0 23.928089 0 23.928089 29 0.0072 29"></polygon>
    </defs>
    <g id="assets" stroke="none" stroke-width="1" fill="none" fill-rule="evenodd">
        <g id="Home" transform="translate(-696.000000, -960.000000)">
            <g id="Group-22" transform="translate(696.000000, 960.000000)">
                <g id="Group-2-Copy">
                    <path d="M4,0 L204,0 C206.209139,-4.05812251e-16 208,1.790861 208,4 L208,68 C208,70.209139 206.209139,72 204,72 L4,72 C1.790861,72 2.705415e-16,70.209139 0,68 L0,4 C-2.705415e-16,1.790861 1.790861,4.05812251e-16 4,0 Z" id="Rectangle-2" fill="#000000"></path>
                    <text id="Available-on-the" font-family="Circular-Book, Circular" font-size="12" font-weight="300" fill="#FFFFFF">
                        <tspan x="57" y="29">AVAILABLE ON THE </tspan>
                    </text>
                    <text id="App-Store" font-family="Circular-Medium, Circular" font-size="20" font-weight="400" fill="#FFFFFF">
                        <tspan x="57" y="53">App Store</tspan>
                    </text>
                </g>
                <g id="apple" transform="translate(17.000000, 22.000000)">
                    <mask id="mask-2" fill="white">
                        <use xlink:href="#path-1"></use>
                    </mask>
                    <g id="Clip-2"></g>
                    <path d="M1.23468,10.6604713 C-1.24032,14.9150328 0.33324,21.3712172 3.07032,25.2858607 C4.43676,27.2432418 5.82,29 7.71516,29 C7.7508,29 7.78644,28.9995246 7.82292,28.9977418 C8.71308,28.962918 9.35676,28.6912213 9.97872,28.4289139 C10.67676,28.1341598 11.39904,27.829541 12.53208,27.829541 C13.60968,27.829541 14.2974,28.1244139 14.96256,28.4094221 C15.61776,28.6903893 16.29324,28.9809836 17.2908,28.9624426 C19.425,28.9229836 20.73564,27.0272869 21.8916,25.3545574 C23.09808,23.6084959 23.70324,21.9129467 23.90724,21.2653197 L23.91564,21.239291 C23.95452,21.124123 23.89968,20.9988525 23.78808,20.9477459 C23.78484,20.9463197 23.77356,20.9416844 23.7708,20.9407336 C23.39484,20.7884836 20.0976,19.3400287 20.0634,15.3913934 C20.03112,12.1838033 22.5366,10.4855205 23.03904,10.1772172 L23.06256,10.1628361 C23.11692,10.1280123 23.15484,10.0732213 23.16744,10.0101107 C23.18064,9.94735656 23.16708,9.8819877 23.13048,9.82897951 C21.40128,7.32238115 18.75048,6.94502459 17.68356,6.8995041 C17.5284,6.88417213 17.36856,6.87632787 17.20824,6.87632787 C15.95484,6.87632787 14.75436,7.34520082 13.78968,7.72172541 C13.12356,7.98213115 12.5484,8.20640574 12.15192,8.20640574 C11.70612,8.20640574 11.1276,7.97939754 10.45776,7.71613934 C9.56256,7.3637418 8.54724,6.9649918 7.4724,6.9649918 C7.44708,6.9649918 7.42176,6.96546721 7.39692,6.96582377 C4.89792,7.00207377 2.53644,8.41808197 1.23468,10.6604713 Z" id="Fill-1" fill="#FFFFFF" mask="url(#mask-2)"></path>
                    <path d="M17.68548,-1.19349246e-14 C16.1724,0.0613278689 14.3574,0.983741803 13.27224,2.24238934 C12.35016,3.30053279 11.4492,5.06418443 11.68692,6.84233607 C11.70144,6.95381967 11.79276,7.03975 11.9058,7.04806967 C12.00792,7.05591393 12.11256,7.06007377 12.21612,7.06007377 C13.69596,7.06007377 15.29208,6.2495 16.38192,4.94402459 C17.52936,3.56557377 18.10968,1.79621721 17.93388,0.21167623 C17.92032,0.0877131148 17.80968,-0.0046352459 17.68548,-1.19349246e-14 Z" id="Fill-3" fill="#FFFFFF" mask="url(#mask-2)"></path>
                </g>
            </g>
        </g>
    </g>
</svg>