<?xml version="1.0" encoding="UTF-8"?>
<svg width="158px" height="48px" viewBox="0 0 158 48" version="1.1" xmlns="http://www.w3.org/2000/svg" xmlns:xlink="http://www.w3.org/1999/xlink">
    <!-- Generator: Sketch 52.2 (67145) - http://www.bohemiancoding.com/sketch -->
    <title>Cashless</title>
    <desc>Created with Sketch.</desc>
    <g id="assets" stroke="none" stroke-width="1" fill="none" fill-rule="evenodd">
        <g id="Home" transform="translate(-406.000000, -795.000000)" fill="#000000">
            <path d="M430.189453,823.760742 L430.226562,823.87207 C430.276042,826.778986 429.388518,829.082837 427.563965,830.783691 C425.739411,832.484546 423.206722,833.334961 419.96582,833.334961 C416.712549,833.334961 414.071625,832.289724 412.042969,830.199219 C410.014313,828.108714 409,825.418311 409,822.12793 L409,816.765625 C409,813.487614 409.989573,810.797211 411.96875,808.694336 C413.947927,806.591461 416.520818,805.540039 419.6875,805.540039 C423.02736,805.540039 425.63736,806.396639 427.517578,808.109863 C429.397796,809.823088 430.313151,812.157863 430.263672,815.114258 L430.226562,815.225586 L424.957031,815.225586 C424.957031,813.444327 424.530278,812.080571 423.676758,811.134277 C422.823238,810.187984 421.493499,809.714844 419.6875,809.714844 C418.067049,809.714844 416.780604,810.373529 415.828125,811.690918 C414.875646,813.008307 414.399414,814.68749 414.399414,816.728516 L414.399414,822.12793 C414.399414,824.193695 414.900386,825.885247 415.902344,827.202637 C416.904302,828.520026 418.258781,829.178711 419.96582,829.178711 C421.66049,829.178711 422.912919,828.724126 423.723145,827.814941 C424.53337,826.905757 424.938477,825.554371 424.938477,823.760742 L430.189453,823.760742 Z M445.422852,832.945312 C445.224934,832.487628 445.054851,832.005211 444.912598,831.498047 C444.770344,830.990883 444.668295,830.471357 444.606445,829.939453 C444.049802,830.916672 443.316899,831.726885 442.407715,832.370117 C441.498531,833.01335 440.413092,833.334961 439.151367,833.334961 C437.048492,833.334961 435.428066,832.793788 434.290039,831.711426 C433.152013,830.629064 432.583008,829.153981 432.583008,827.286133 C432.583008,825.319326 433.34065,823.794765 434.855957,822.712402 C436.371264,821.63004 438.582342,821.088867 441.489258,821.088867 L444.513672,821.088867 L444.513672,819.493164 C444.513672,818.528315 444.260094,817.779951 443.75293,817.248047 C443.245766,816.716143 442.497401,816.450195 441.507812,816.450195 C440.629553,816.450195 439.952314,816.663572 439.476074,817.090332 C438.999835,817.517092 438.761719,818.107744 438.761719,818.862305 L433.529297,818.84375 L433.510742,818.732422 C433.424153,817.037752 434.160148,815.575039 435.71875,814.344238 C437.277352,813.113438 439.324532,812.498047 441.860352,812.498047 C444.260103,812.498047 446.208326,813.107253 447.705078,814.325684 C449.20183,815.544114 449.950195,817.27896 449.950195,819.530273 L449.950195,827.824219 C449.950195,828.764328 450.021321,829.648759 450.163574,830.477539 C450.305828,831.306319 450.531574,832.128902 450.84082,832.945312 L445.422852,832.945312 Z M440.46875,829.327148 C441.421229,829.327148 442.268551,829.092125 443.010742,828.62207 C443.752933,828.152016 444.253905,827.60775 444.513672,826.989258 L444.513672,824.150391 L441.489258,824.150391 C440.338861,824.150391 439.4668,824.437985 438.873047,825.013184 C438.279294,825.588382 437.982422,826.284176 437.982422,827.100586 C437.982422,827.768558 438.205076,828.306639 438.650391,828.714844 C439.095705,829.123049 439.701819,829.327148 440.46875,829.327148 Z M464.905273,827.416016 C464.905273,826.822263 464.617679,826.308921 464.04248,825.875977 C463.467282,825.443032 462.400398,825.059572 460.841797,824.725586 C458.466785,824.243162 456.676276,823.528813 455.470215,822.58252 C454.264154,821.636226 453.661133,820.346688 453.661133,818.713867 C453.661133,816.982088 454.387851,815.51319 455.841309,814.307129 C457.294766,813.101068 459.239897,812.498047 461.676758,812.498047 C464.237317,812.498047 466.27522,813.097976 467.790527,814.297852 C469.305834,815.497727 470.032552,817.013012 469.970703,818.84375 L469.933594,818.955078 L464.701172,818.955078 C464.701172,818.151038 464.444501,817.495445 463.931152,816.988281 C463.417803,816.481117 462.666346,816.227539 461.676758,816.227539 C460.798498,816.227539 460.108889,816.440916 459.60791,816.867676 C459.106931,817.294436 458.856445,817.829424 458.856445,818.472656 C458.856445,819.091149 459.119301,819.598305 459.64502,819.994141 C460.170738,820.389976 461.237622,820.742511 462.845703,821.051758 C465.319674,821.546552 467.15657,822.27327 468.356445,823.231934 C469.556321,824.190597 470.15625,825.511059 470.15625,827.193359 C470.15625,828.999358 469.383146,830.474441 467.836914,831.618652 C466.290682,832.762864 464.249687,833.334961 461.713867,833.334961 C459.041979,833.334961 456.929858,832.657722 455.377441,831.303223 C453.825025,829.948724 453.085937,828.405608 453.160156,826.673828 L453.197266,826.5625 L458.151367,826.5625 C458.188477,827.638677 458.541012,828.417966 459.208984,828.900391 C459.876956,829.382815 460.749018,829.624023 461.825195,829.624023 C462.827153,829.624023 463.59098,829.426109 464.116699,829.030273 C464.642418,828.634438 464.905273,828.096358 464.905273,827.416016 Z M478.932617,815.411133 C479.56348,814.495764 480.336584,813.781415 481.251953,813.268066 C482.167322,812.754717 483.181635,812.498047 484.294922,812.498047 C486.385427,812.498047 488.027501,813.193841 489.221191,814.585449 C490.414882,815.977058 491.011719,818.126288 491.011719,821.033203 L491.011719,832.945312 L485.59375,832.945312 L485.59375,820.996094 C485.59375,819.437492 485.318525,818.333499 484.768066,817.684082 C484.217608,817.034665 483.398117,816.709961 482.30957,816.709961 C481.567379,816.709961 480.911787,816.842935 480.342773,817.108887 C479.77376,817.374839 479.303713,817.749021 478.932617,818.231445 L478.932617,832.945312 L473.514648,832.945312 L473.514648,804 L478.932617,804 L478.932617,815.411133 Z M500.790039,832.945312 L495.37207,832.945312 L495.37207,804 L500.790039,804 L500.790039,832.945312 Z M514.130859,833.334961 C511.236314,833.334961 508.923186,832.407236 507.191406,830.551758 C505.459627,828.69628 504.59375,826.339858 504.59375,823.482422 L504.59375,822.740234 C504.59375,819.7591 505.413241,817.303721 507.052246,815.374023 C508.691252,813.444326 510.88996,812.485677 513.648438,812.498047 C516.357435,812.498047 518.460279,813.314445 519.957031,814.947266 C521.453784,816.580086 522.202148,818.788072 522.202148,821.571289 L522.202148,824.521484 L510.21582,824.521484 L510.178711,824.632812 C510.27767,825.956387 510.719885,827.044918 511.505371,827.898438 C512.290857,828.751957 513.357741,829.178711 514.706055,829.178711 C515.90593,829.178711 516.901689,829.058107 517.693359,828.816895 C518.48503,828.575682 519.350907,828.195315 520.291016,827.675781 L521.756836,831.015625 C520.940426,831.683597 519.870449,832.23714 518.546875,832.67627 C517.223301,833.115399 515.75131,833.334961 514.130859,833.334961 Z M513.648438,816.672852 C512.646479,816.672852 511.854821,817.056311 511.273438,817.823242 C510.692054,818.590173 510.333334,819.598301 510.197266,820.847656 L510.25293,820.94043 L516.895508,820.94043 L516.895508,820.458008 C516.895508,819.307611 516.626468,818.389164 516.088379,817.702637 C515.55029,817.01611 514.736985,816.672852 513.648438,816.672852 Z M536.210938,827.416016 C536.210938,826.822263 535.923343,826.308921 535.348145,825.875977 C534.772946,825.443032 533.706062,825.059572 532.147461,824.725586 C529.772449,824.243162 527.98194,823.528813 526.775879,822.58252 C525.569818,821.636226 524.966797,820.346688 524.966797,818.713867 C524.966797,816.982088 525.693515,815.51319 527.146973,814.307129 C528.60043,813.101068 530.545561,812.498047 532.982422,812.498047 C535.542982,812.498047 537.580884,813.097976 539.096191,814.297852 C540.611498,815.497727 541.338216,817.013012 541.276367,818.84375 L541.239258,818.955078 L536.006836,818.955078 C536.006836,818.151038 535.750165,817.495445 535.236816,816.988281 C534.723467,816.481117 533.97201,816.227539 532.982422,816.227539 C532.104162,816.227539 531.414553,816.440916 530.913574,816.867676 C530.412595,817.294436 530.162109,817.829424 530.162109,818.472656 C530.162109,819.091149 530.424965,819.598305 530.950684,819.994141 C531.476402,820.389976 532.543286,820.742511 534.151367,821.051758 C536.625338,821.546552 538.462234,822.27327 539.662109,823.231934 C540.861985,824.190597 541.461914,825.511059 541.461914,827.193359 C541.461914,828.999358 540.68881,830.474441 539.142578,831.618652 C537.596346,832.762864 535.555351,833.334961 533.019531,833.334961 C530.347643,833.334961 528.235522,832.657722 526.683105,831.303223 C525.130689,829.948724 524.391601,828.405608 524.46582,826.673828 L524.50293,826.5625 L529.457031,826.5625 C529.494141,827.638677 529.846676,828.417966 530.514648,828.900391 C531.182621,829.382815 532.054682,829.624023 533.130859,829.624023 C534.132818,829.624023 534.896645,829.426109 535.422363,829.030273 C535.948082,828.634438 536.210938,828.096358 536.210938,827.416016 Z M555.804688,827.416016 C555.804688,826.822263 555.517093,826.308921 554.941895,825.875977 C554.366696,825.443032 553.299812,825.059572 551.741211,824.725586 C549.366199,824.243162 547.57569,823.528813 546.369629,822.58252 C545.163568,821.636226 544.560547,820.346688 544.560547,818.713867 C544.560547,816.982088 545.287265,815.51319 546.740723,814.307129 C548.19418,813.101068 550.139311,812.498047 552.576172,812.498047 C555.136732,812.498047 557.174634,813.097976 558.689941,814.297852 C560.205248,815.497727 560.931966,817.013012 560.870117,818.84375 L560.833008,818.955078 L555.600586,818.955078 C555.600586,818.151038 555.343915,817.495445 554.830566,816.988281 C554.317217,816.481117 553.56576,816.227539 552.576172,816.227539 C551.697912,816.227539 551.008303,816.440916 550.507324,816.867676 C550.006345,817.294436 549.755859,817.829424 549.755859,818.472656 C549.755859,819.091149 550.018715,819.598305 550.544434,819.994141 C551.070152,820.389976 552.137036,820.742511 553.745117,821.051758 C556.219088,821.546552 558.055984,822.27327 559.255859,823.231934 C560.455735,824.190597 561.055664,825.511059 561.055664,827.193359 C561.055664,828.999358 560.28256,830.474441 558.736328,831.618652 C557.190096,832.762864 555.149101,833.334961 552.613281,833.334961 C549.941393,833.334961 547.829272,832.657722 546.276855,831.303223 C544.724439,829.948724 543.985351,828.405608 544.05957,826.673828 L544.09668,826.5625 L549.050781,826.5625 C549.087891,827.638677 549.440426,828.417966 550.108398,828.900391 C550.776371,829.382815 551.648432,829.624023 552.724609,829.624023 C553.726568,829.624023 554.490395,829.426109 555.016113,829.030273 C555.541832,828.634438 555.804688,828.096358 555.804688,827.416016 Z" id="Cashless"></path>
        </g>
    </g>
</svg>