<?xml version="1.0" encoding="UTF-8"?>
<svg width="88px" height="88px" viewBox="0 0 88 88" version="1.1" xmlns="http://www.w3.org/2000/svg" xmlns:xlink="http://www.w3.org/1999/xlink">
    <!-- Generator: Sketch 52.2 (67145) - http://www.bohemiancoding.com/sketch -->
    <title>icon5</title>
    <desc>Created with Sketch.</desc>
    <g id="assets" stroke="none" stroke-width="1" fill="none" fill-rule="evenodd">
        <g id="Home" transform="translate(-254.000000, -1093.000000)">
            <rect fill="#FFFFFF" x="0" y="0" width="1440" height="3738"></rect>
            <g id="Group-26" transform="translate(255.000000, 1108.000000)" fill="#1A73E9">
                <circle id="Oval-Copy-4" opacity="0.100000001" cx="63" cy="24" r="24"></circle>
                <g id="gift-card" transform="translate(0.000000, 9.000000)">
                    <path d="M63.8476562,0 L6.15234375,0 C2.75994141,0 0,2.747675 0,6.125 L0,42.875 C0,46.252325 2.75994141,49 6.15234375,49 L63.8476562,49 C67.2400586,49 70,46.252325 70,42.875 L70,6.125 C70,2.747675 67.2400586,0 63.8476562,0 Z M20.5078125,44.9166667 L6.15234375,44.9166667 C5.02154297,44.9166667 4.1015625,44.000775 4.1015625,42.875 L4.1015625,20.4166667 L8.53876953,20.4166667 C9.56197266,23.4582056 12.6988477,25.2902611 15.8783789,24.6701389 L12.649082,29.4925556 C12.0208594,30.4307694 12.2755664,31.6983722 13.2179687,32.3238028 C14.1602344,32.9490972 15.4336328,32.6956583 16.0618555,31.7574444 L20.5078125,25.1182167 L20.5078125,44.9166667 Z M12.3046875,18.3721417 C12.3046875,16.5134083 14.3811719,15.4011083 15.9393555,16.4355528 L18.8614453,18.375 L15.9393555,20.3144472 C14.3865039,21.3450806 12.3046875,20.2448944 12.3046875,18.3721417 Z M20.5078125,14.5600778 L18.2144922,13.0379472 C14.6738867,10.6879889 9.87970703,12.3484083 8.53945312,16.3331972 L4.1015625,16.3331972 L4.1015625,6.12486389 C4.1015625,4.999225 5.02154297,4.08333333 6.15234375,4.08333333 L20.5078125,4.08333333 L20.5078125,14.5600778 Z M65.8984375,42.8751361 C65.8984375,44.000775 64.978457,44.9166667 63.8476562,44.9166667 L24.609375,44.9166667 L24.609375,25.1182167 L29.055332,31.7575806 C29.684375,32.6968833 30.9580469,32.9486889 31.8992187,32.3239389 C32.8416211,31.6983722 33.0963281,30.4307694 32.4681055,29.4926917 L29.2388086,24.670275 C32.4038477,25.2874028 35.5498828,23.4727694 36.5777344,20.4168028 L65.8984375,20.4168028 L65.8984375,42.8751361 Z M26.2557422,18.375 L29.177832,16.4355528 C30.7308203,15.4047833 32.8125,16.5051056 32.8125,18.3777222 C32.8125,20.2395861 30.7331445,21.34685 29.177832,20.3143111 L26.2557422,18.375 Z M65.8984375,16.3333333 L36.578418,16.3333333 C35.2378906,12.3489528 30.4437109,10.6878528 26.9026953,13.0380833 L24.609375,14.5600778 L24.609375,4.08333333 L63.8476562,4.08333333 C64.978457,4.08333333 65.8984375,4.999225 65.8984375,6.125 L65.8984375,16.3333333 Z" id="Shape" fill-rule="nonzero"></path>
                    <path d="M59.7460938,28.5833333 L43.0664062,28.5833333 C41.9338281,28.5833333 41.015625,29.4974556 41.015625,30.625 C41.015625,31.7525444 41.9338281,32.6666667 43.0664062,32.6666667 L59.7460938,32.6666667 C60.8786719,32.6666667 61.796875,31.7525444 61.796875,30.625 C61.796875,29.4974556 60.8786719,28.5833333 59.7460938,28.5833333 Z" id="Path"></path>
                    <path d="M59.7460938,36.75 L43.0664062,36.75 C41.9338281,36.75 41.015625,37.6641222 41.015625,38.7916667 C41.015625,39.9192111 41.9338281,40.8333333 43.0664062,40.8333333 L59.7460938,40.8333333 C60.8786719,40.8333333 61.796875,39.9192111 61.796875,38.7916667 C61.796875,37.6641222 60.8786719,36.75 59.7460938,36.75 Z" id="Path"></path>
                </g>
            </g>
        </g>
    </g>
</svg>