<?xml version="1.0" encoding="UTF-8"?>
<svg width="88px" height="88px" viewBox="0 0 88 88" version="1.1" xmlns="http://www.w3.org/2000/svg" xmlns:xlink="http://www.w3.org/1999/xlink">
    <!-- Generator: Sketch 52.2 (67145) - http://www.bohemiancoding.com/sketch -->
    <title>icon2</title>
    <desc>Created with Sketch.</desc>
    <g id="assets" stroke="none" stroke-width="1" fill="none" fill-rule="evenodd">
        <g id="Home" transform="translate(-254.000000, -951.000000)">
            <rect fill="#FFFFFF" x="0" y="0" width="1440" height="3738"></rect>
            <g id="Group-20" transform="translate(255.000000, 959.000000)" fill="#1A73E9">
                <circle id="Oval-Copy" opacity="0.100000001" cx="63" cy="29" r="24"></circle>
                <g id="wallet-(1)" fill-rule="nonzero">
                    <path d="M61.5110865,12.5535813 L39.1000138,0.504183735 C36.9740623,-0.639189759 34.0508789,0.240328313 32.8993218,2.35117169 L19.7892872,26.5379187 L3.84465052,26.5379187 C1.80728028,26.5379187 0.212816609,28.1210512 0.212816609,30.1439428 L0.212816609,36.4764729 L0.212816609,69.282497 C0.212816609,71.3053886 1.80728028,72.8885211 3.84465052,72.8885211 L54.7789066,72.8885211 C56.8162768,72.8885211 58.4107405,71.3053886 58.4107405,69.282497 L58.4107405,60.135509 L59.9166228,60.135509 C60.7138547,60.135509 61.3339239,59.5198464 61.3339239,58.7282801 L61.3339239,48.2620151 C61.3339239,47.4704488 60.7138547,46.8547861 59.9166228,46.8547861 L58.4107405,46.8547861 L58.4107405,36.5644247 C58.4107405,34.8933404 57.1706021,33.3981596 55.5761384,33.0463524 L63.3712941,18.7102078 C64.5228512,16.5114127 63.7256194,13.7849066 61.5110865,12.5535813 Z M45.5664498,7.18852108 L31.5706021,32.9584006 L27.5844429,32.9584006 L42.5546851,5.60538855 L45.5664498,7.18852108 Z M35.4681799,3.6704488 C35.9110865,2.87888253 36.9740623,2.5270753 37.7712941,2.96683434 L39.985827,4.19815964 L24.3955156,32.9584006 L19.5235433,32.9584006 L35.4681799,3.6704488 Z M2.95883737,30.055991 C2.95883737,29.7921355 3.31316263,29.3523765 3.7560692,29.3523765 L18.1948235,29.3523765 L16.2460346,32.8704488 L3.7560692,32.8704488 C3.49032526,32.8704488 3.22458131,32.8704488 2.95883737,32.9584006 L2.95883737,30.055991 Z M55.4875571,69.282497 C55.4875571,69.722256 55.1332318,70.0740633 54.6903253,70.0740633 L3.7560692,70.0740633 C3.31316263,70.0740633 2.95883737,69.722256 2.95883737,69.282497 L2.95883737,36.5644247 C2.95883737,36.1246657 3.31316263,35.7728584 3.7560692,35.7728584 L17.1318478,35.7728584 L22.8010519,35.7728584 L33.1650657,35.7728584 L53.0958616,35.7728584 L54.6017439,35.7728584 C55.0446505,35.7728584 55.3989758,36.1246657 55.3989758,36.5644247 L55.3989758,46.8547861 L49.9955156,46.8547861 C47.6038201,46.8547861 45.7436125,48.7897259 45.7436125,51.0764729 L45.7436125,55.9138223 C45.7436125,58.2885211 47.6924014,60.135509 49.9955156,60.135509 L55.4875571,60.135509 L55.4875571,69.282497 Z M58.3221592,49.669244 L58.4107405,49.669244 L58.4107405,57.3210512 L58.3221592,57.3210512 L49.9955156,57.3210512 C49.1982837,57.3210512 48.5782145,56.7053886 48.5782145,55.9138223 L48.5782145,51.0764729 C48.5782145,50.2849066 49.1982837,49.669244 49.9955156,49.669244 L58.3221592,49.669244 Z M60.802436,17.3029789 L52.2986298,32.9584006 L34.7595294,32.9584006 L48.0467266,8.59575 L60.0937855,15.1041837 C60.9795986,15.455991 61.2453426,16.5114127 60.802436,17.3029789 Z" id="Shape"></path>
                    <path d="M55.3989758,15.9837018 L54.6903253,15.6318946 C52.918699,14.6644247 50.5270035,15.3680392 49.552609,17.1270753 L48.6667958,18.7981596 C48.2238893,19.6776777 48.0467266,20.7330994 48.4010519,21.7005693 C48.6667958,22.6680392 49.3754464,23.4596054 50.2612595,23.8993645 L50.96991,24.2511717 C51.5013979,24.5150271 52.1214671,24.6909307 52.7415363,24.6909307 C54.1588374,24.6909307 55.3989758,23.8993645 56.1076263,22.755991 L56.9934394,21.0849066 C57.8792526,19.2379187 57.1706021,16.9511717 55.3989758,15.9837018 Z M54.4245813,19.7656295 L53.5387682,21.4367139 C53.2730242,21.8764729 52.652955,22.0523765 52.2100484,21.7885211 L51.5013979,21.348762 C51.3242353,21.2608102 51.1470727,20.9969548 51.0584913,20.8210512 C50.96991,20.5571958 50.96991,20.2933404 51.1470727,20.1174367 L52.0328858,18.4463524 C52.2100484,18.182497 52.5643737,17.9186416 52.918699,17.9186416 C53.0958616,17.9186416 53.1844429,17.9186416 53.3616055,18.0065934 L54.0702561,18.3584006 C54.4245813,18.7102078 54.6017439,19.2379187 54.4245813,19.7656295 Z" id="Shape"></path>
                </g>
            </g>
        </g>
    </g>
</svg>