<?xml version="1.0" encoding="UTF-8"?>
<svg width="88px" height="88px" viewBox="0 0 88 88" version="1.1" xmlns="http://www.w3.org/2000/svg" xmlns:xlink="http://www.w3.org/1999/xlink">
    <!-- Generator: Sketch 52.2 (67145) - http://www.bohemiancoding.com/sketch -->
    <title>icon4</title>
    <desc>Created with Sketch.</desc>
    <g id="assets" stroke="none" stroke-width="1" fill="none" fill-rule="evenodd">
        <g id="Home" transform="translate(-28.000000, -1088.000000)">
            <rect fill="#FFFFFF" x="0" y="0" width="1440" height="3738"></rect>
            <g id="Group-18" transform="translate(29.000000, 1099.000000)" fill="#1A73E9">
                <circle id="Oval-Copy-5" opacity="0.100000001" cx="62" cy="24" r="24"></circle>
                <g id="line-chart" transform="translate(0.000000, 3.000000)" stroke="#1A73E9">
                    <path d="M58.5355528,0 C55.5675031,0 53.171677,2.39562733 53.171677,5.36387578 C53.171677,8.33212422 55.5673043,10.7277516 58.5355528,10.7277516 C61.5038012,10.7277516 63.8994286,8.33212422 63.8994286,5.36387578 C63.8992298,2.39562733 61.5036025,0 58.5355528,0 Z M58.5355528,7.97157764 C57.0939627,7.97157764 55.9278509,6.80546584 55.9278509,5.36387578 C55.9278509,3.92228571 57.0939627,2.75617391 58.5355528,2.75617391 C59.9771429,2.75617391 61.1432547,3.92228571 61.1432547,5.36387578 C61.1432547,6.80546584 59.9771429,7.97157764 58.5355528,7.97157764 Z" id="Shape" fill-rule="nonzero"></path>
                    <path d="M5.36387578,30.571528 C2.39562733,30.571528 0,32.967354 0,35.9354037 C0,38.9034534 2.39562733,41.2992795 5.36387578,41.2992795 C8.33212422,41.2992795 10.7277516,38.9036522 10.7277516,35.9354037 C10.7277516,32.9671553 8.33192547,30.571528 5.36387578,30.571528 Z M5.36387578,38.5431056 C3.92228571,38.5431056 2.75617391,37.3769938 2.75617391,35.9354037 C2.75617391,34.4938137 3.92228571,33.3277019 5.36387578,33.3277019 C6.80546584,33.3277019 7.97157764,34.4938137 7.97157764,35.9354037 C7.97157764,37.3769938 6.80546584,38.5431056 5.36387578,38.5431056 Z" id="Shape" fill-rule="nonzero"></path>
                    <path d="M21.3068323,14.6285714 C18.3387826,14.6285714 15.9429565,17.0241988 15.9429565,19.9924472 C15.9429565,22.9604969 18.3385839,25.356323 21.3068323,25.356323 C24.274882,25.356323 26.6707081,22.9606957 26.6707081,19.9924472 C26.6707081,17.0241988 24.274882,14.6285714 21.3068323,14.6285714 Z M21.3068323,22.6001491 C19.8652422,22.6001491 18.6991304,21.4340373 18.6991304,19.9924472 C18.6991304,18.5508571 19.8652422,17.3847453 21.3068323,17.3847453 C22.7484224,17.3847453 23.9145342,18.5508571 23.9145342,19.9924472 C23.9145342,21.4340373 22.7484224,22.6001491 21.3068323,22.6001491 Z" id="Shape" fill-rule="nonzero"></path>
                    <path d="M32.6068075,25.9285466 C29.6387578,25.9285466 27.2429317,28.3241739 27.2429317,31.2924224 C27.2429317,34.260472 29.638559,36.6562981 32.6068075,36.6562981 C35.5750559,36.6562981 37.9706832,34.2606708 37.9706832,31.2924224 C37.9706832,28.3243727 35.5750559,25.9285466 32.6068075,25.9285466 Z M32.6068075,33.9001242 C31.1652174,33.9001242 29.9991056,32.7340124 29.9991056,31.2924224 C29.9991056,29.8508323 31.1652174,28.6847205 32.6068075,28.6847205 C34.0483975,28.6847205 35.2145093,29.8508323 35.2145093,31.2924224 C35.2145093,32.7340124 34.0485963,33.9001242 32.6068075,33.9001242 Z" id="Shape" fill-rule="nonzero"></path>
                    <rect id="Rectangle" transform="translate(45.565966, 18.309520) rotate(-45.056720) translate(-45.565966, -18.309520) " x="31.2238358" y="16.9314455" width="28.6842607" height="2.75614883"></rect>
                    <rect id="Rectangle" transform="translate(26.972851, 25.635013) rotate(-45.105338) translate(-26.972851, -25.635013) " x="25.5947752" y="21.6280882" width="2.75615214" height="8.01384973"></rect>
                    <rect id="Rectangle" transform="translate(13.343979, 27.955066) rotate(-45.000000) translate(-13.343979, -27.955066) " x="6.06166384" y="26.5769927" width="14.5646305" height="2.75614748"></rect>
                    <rect id="Rectangle" x="0.0423354037" y="61.1432547" width="63.814559" height="2.75617391"></rect>
                    <rect id="Rectangle" x="57.1573665" y="22.6424845" width="2.75617391" height="39.8787578"></rect>
                    <rect id="Rectangle" x="31.9071801" y="42.5923975" width="2.75617391" height="19.9288447"></rect>
                    <rect id="Rectangle" x="3.98568944" y="46.5782857" width="2.75617391" height="15.9429565"></rect>
                    <rect id="Rectangle" x="19.9288447" y="34.5997516" width="2.75617391" height="27.9214907"></rect>
                </g>
            </g>
        </g>
    </g>
</svg>