<?xml version="1.0" encoding="UTF-8"?>
<svg width="88px" height="88px" viewBox="0 0 88 88" version="1.1" xmlns="http://www.w3.org/2000/svg" xmlns:xlink="http://www.w3.org/1999/xlink">
    <!-- Generator: Sketch 52.2 (67145) - http://www.bohemiancoding.com/sketch -->
    <title>icon1</title>
    <desc>Created with Sketch.</desc>
    <g id="assets" stroke="none" stroke-width="1" fill="none" fill-rule="evenodd">
        <g id="Home" transform="translate(-32.000000, -954.000000)">
            <rect fill="#FFFFFF" x="0" y="0" width="1440" height="3738"></rect>
            <g id="Group-19" transform="translate(36.000000, 964.000000)">
                <circle id="Oval" fill="#1A73E9" opacity="0.100000001" cx="57" cy="24" r="24"></circle>
                <g id="Group-3" transform="translate(0.000000, 14.000000)">
                    <g id="002-fingerprint-scan">
                        <g id="Group-4" fill="#1A73E9">
                            <path d="M17.6004953,0.0641048152 L5.82363977,0.0641048152 C2.61222597,0.0641048152 0,2.6520162 0,5.83353818 L0,17.5007748 C0,18.5637929 0.86820763,19.4239193 1.94121326,19.4239193 C3.01421889,19.4239193 3.88242652,18.5637929 3.88242652,17.5007748 L3.88242652,5.83353818 C3.88242652,4.77244323 4.75257536,3.91039373 5.82363977,3.91039373 L17.6004953,3.91039373 C18.6735009,3.91039373 19.5417086,3.05026737 19.5417086,1.98724927 C19.5417086,0.924231173 18.6735009,0.0641048152 17.6004953,0.0641048152 Z" id="Fill-1"></path>
                            <path d="M17.6004953,49.8855222 L5.82363977,49.8855222 C4.75257536,49.8855222 3.88242652,49.0234727 3.88242652,47.9623777 L3.88242652,36.2951411 C3.88242652,35.232123 3.01421889,34.3719966 1.94121326,34.3719966 C0.86820763,34.3719966 0,35.232123 0,36.2951411 L0,47.9623777 C0,51.1437394 2.61222597,53.7318111 5.82363977,53.7318111 L17.6004953,53.7318111 C18.6735009,53.7318111 19.5417086,52.8715244 19.5417086,51.8086666 C19.5417086,50.7456485 18.6735009,49.8855222 17.6004953,49.8855222 Z" id="Fill-3"></path>
                        </g>
                        <path d="M60.436763,0.0641048152 L48.6599074,0.0641048152 C47.5869018,0.0641048152 46.7186942,0.924231173 46.7186942,1.98724927 C46.7186942,3.05026737 47.5869018,3.91039373 48.6599074,3.91039373 L60.436763,3.91039373 C61.5078274,3.91039373 62.3779762,4.77244323 62.3779762,5.83353818 L62.3779762,17.5007748 C62.3779762,18.5637929 63.2461839,19.4239193 64.3191895,19.4239193 C65.3920334,19.4239193 66.2604028,18.5637929 66.2604028,17.5007748 L66.2604028,5.83353818 C66.2604028,2.6520162 63.648015,0.0641048152 60.436763,0.0641048152 Z" id="Fill-5" fill="#1A73E9"></path>
                        <path d="M64.3191895,34.3719966 C63.2461839,34.3719966 62.3779762,35.232123 62.3779762,36.2951411 L62.3779762,47.9623777 C62.3779762,49.0234727 61.5078274,49.8855222 60.436763,49.8855222 L48.6599074,49.8855222 C47.5869018,49.8855222 46.7186942,50.7456485 46.7186942,51.8086666 C46.7186942,52.8715244 47.5869018,53.7318111 48.6599074,53.7318111 L60.436763,53.7318111 C63.648015,53.7318111 66.2604028,51.1437394 66.2604028,47.9623777 L66.2604028,36.2951411 C66.2604028,35.232123 65.3920334,34.3719966 64.3191895,34.3719966 Z" id="Fill-6" fill="#1A73E9"></path>
                        <polyline id="Rectangle-8" stroke="#1A73E9" stroke-width="4.52662722" stroke-linecap="round" stroke-linejoin="round" transform="translate(33.162393, 22.454897) rotate(-45.000000) translate(-33.162393, -22.454897) " points="48.2362082 29.9398625 18.0885781 29.9398625 18.9602056 14.9699313"></polyline>
                    </g>
                </g>
            </g>
        </g>
    </g>
</svg>