<?xml version="1.0" encoding="UTF-8"?>
<svg width="88px" height="88px" viewBox="0 0 88 88" version="1.1" xmlns="http://www.w3.org/2000/svg" xmlns:xlink="http://www.w3.org/1999/xlink">
    <!-- Generator: Sketch 52.2 (67145) - http://www.bohemiancoding.com/sketch -->
    <title>icon6</title>
    <desc>Created with Sketch.</desc>
    <g id="assets" stroke="none" stroke-width="1" fill="none" fill-rule="evenodd">
        <g id="Home" transform="translate(-487.000000, -1090.000000)">
            <rect fill="#FFFFFF" x="0" y="0" width="1440" height="3738"></rect>
            <g id="Group-25" transform="translate(490.000000, 1102.000000)" fill="#1A73E9">
                <circle id="Oval-Copy-3" opacity="0.100000001" cx="59" cy="24" r="24"></circle>
                <g id="shield">
                    <path d="M53.936622,17.4556531 L53.9346868,17.4059454 C53.9071101,16.7923976 53.8887256,16.1432749 53.8775982,15.4210526 C53.8258314,11.8991228 51.0463912,8.98586748 47.5494732,8.78898639 C40.258583,8.37914224 34.6184239,5.98440546 29.799276,1.25292401 L29.7581529,1.21345023 C28.1862815,-0.238304062 25.8151699,-0.238304062 24.2428146,1.21345023 L24.2016915,1.25292401 C19.3825438,5.98440546 13.7423846,8.37914224 6.45149444,8.78947368 C2.95506021,8.98586748 0.175136119,11.8991228 0.12336944,15.4215399 C0.112725743,16.1388889 0.0938574495,16.7880117 0.066280789,17.4059454 L0.0633780413,17.5214424 C-0.0783757982,25.0102339 -0.254479706,34.3304094 2.84088303,42.789961 C4.54289714,47.4420078 7.12059209,51.4858674 10.5018815,54.8099416 C14.3529423,58.5955166 19.3970577,61.6008772 25.4939256,63.7422028 C25.6922842,63.8118909 25.8983838,63.868421 26.1083536,63.9108187 C26.4044402,63.9702729 26.702462,64 27.0004838,64 C27.2985056,64 27.5970111,63.9702729 27.8926139,63.9108187 C28.1025839,63.868421 28.3101347,63.8114035 28.509461,63.741228 C34.5990718,61.5960039 39.6378655,58.5891813 43.4855397,54.8040935 C46.8653777,51.4790449 49.4430726,47.4342106 51.1465382,42.7811891 C54.253512,34.2962963 54.077892,24.958577 53.936622,17.4556531 Z M47.6554258,41.4844055 C44.3907324,50.4005849 37.7263654,56.5238792 27.2815726,60.2032163 C27.2443198,60.215887 27.2046481,60.2270955 27.1635249,60.2353801 C27.0556372,60.2568226 26.9458142,60.2568226 26.8364751,60.2348927 C26.7958357,60.2266082 26.756164,60.215887 26.7193951,60.2032163 C16.2634748,56.5307017 9.59475344,50.4108187 6.33247918,41.494152 C3.47950115,33.6963937 3.64109094,25.1408382 3.78381233,17.5930799 L3.78477999,17.5511696 C3.81380809,16.9025341 3.83316015,16.2231968 3.84380372,15.4766082 C3.8670262,13.912768 5.10362311,12.6189084 6.6590453,12.5316764 C10.7849054,12.2997076 14.409547,11.4965887 17.7400373,10.0765107 C21.0661733,8.6583821 24.0202659,6.65935669 26.7701942,3.96539958 C26.910013,3.8464912 27.0914385,3.8460039 27.2307733,3.96539958 C29.9811854,6.65935669 32.9352781,8.6583821 36.2609304,10.0765107 C39.5914205,11.4965887 43.2160623,12.2997076 47.3424061,12.5316764 C48.8978283,12.6189084 50.1344251,13.912768 50.1571638,15.4770955 C50.1682913,16.2275829 50.1876433,16.90692 50.2166714,17.5511696 C50.3589091,25.1076998 50.5166284,33.670078 47.6554258,41.4844055 Z" id="Shape" fill-rule="nonzero"></path>
                    <path d="M26.9995162,16.1447368 C18.2852817,16.1447368 11.1961368,23.2860624 11.1961368,32.0633528 C11.1961368,40.8411307 18.2852817,47.9824561 26.9995162,47.9824561 C35.7132669,47.9824561 42.8028956,40.8411307 42.8028956,32.0633528 C42.8028956,23.2860624 35.7132669,16.1447368 26.9995162,16.1447368 Z M26.9995162,44.2339181 C20.3370843,44.2339181 14.9170549,38.7743664 14.9170549,32.0633528 C14.9170549,25.3523392 20.3370843,19.8927875 26.9995162,19.8927875 C33.6614643,19.8927875 39.0814937,25.3523392 39.0814937,32.0633528 C39.0814937,38.7743664 33.6614643,44.2339181 26.9995162,44.2339181 Z" id="Shape" fill-rule="nonzero"></path>
                    <path d="M31.5414457,27.121345 L24.2012077,34.5151072 L22.2089127,32.5082846 C21.4822427,31.7763158 20.3041858,31.7763158 19.5775157,32.5082846 C18.8513295,33.2402534 18.8513295,34.4269006 19.5775157,35.158382 L22.8857511,38.4907408 C23.2490862,38.8567252 23.725147,39.0394737 24.2012077,39.0394737 C24.6772685,39.0394737 25.1533293,38.8567252 25.5166643,38.4907408 L34.1728425,29.7714425 C34.8990288,29.0394737 34.8990288,27.8528264 34.1728425,27.121345 C33.4461726,26.388889 32.2681157,26.388889 31.5414457,27.121345 Z" id="Path"></path>
                </g>
            </g>
        </g>
    </g>
</svg>