<?xml version="1.0" encoding="UTF-8"?>
<svg width="88px" height="88px" viewBox="0 0 88 88" version="1.1" xmlns="http://www.w3.org/2000/svg" xmlns:xlink="http://www.w3.org/1999/xlink">
    <!-- Generator: Sketch 52.2 (67145) - http://www.bohemiancoding.com/sketch -->
    <title>icon3</title>
    <desc>Created with Sketch.</desc>
    <g id="assets" stroke="none" stroke-width="1" fill="none" fill-rule="evenodd">
        <g id="Home" transform="translate(-483.000000, -955.000000)">
            <rect fill="#FFFFFF" x="0" y="0" width="1440" height="3738"></rect>
            <g id="Group-24" transform="translate(484.000000, 967.000000)" fill="#1A73E9">
                <circle id="Oval-Copy-2" opacity="0.100000001" cx="63" cy="24" r="24"></circle>
                <path d="M43.8917656,52.7844297 C43.8917656,51.7199492 44.7351145,50.8606698 45.7728412,50.8606698 L52.0430935,50.8606698 C53.0808202,50.8606698 53.921034,51.7199492 53.921034,52.7844297 C53.921034,53.8489101 53.0808202,54.7081895 52.0430935,54.7081895 L45.7728412,54.7081895 C44.7351145,54.7081895 43.8917656,53.8489101 43.8917656,52.7844297 Z M62.7025223,31.2896193 L3.76215134,31.2896193 L3.76215134,27.3362928 C3.76215134,24.8610551 5.73101053,22.8443135 8.15132789,22.8443135 L58.3133457,22.8443135 C60.7305279,22.8443135 62.7025223,24.8610551 62.7025223,27.3362928 L62.7025223,31.2896193 Z M62.7025223,56.1894846 C62.7025223,58.6647223 60.7305279,60.6814639 58.3133457,60.6814639 L8.15132789,60.6814639 C5.73101053,60.6814639 3.76215134,58.6647223 3.76215134,56.1894846 L3.76215134,35.1371391 L62.7025223,35.1371391 L62.7025223,56.1894846 Z M8.15132789,19 C3.65555705,19 0,22.7385067 0,27.3362928 L0,56.1894846 C0,60.7872707 3.65555705,64.5257774 8.15132789,64.5257774 L58.3133457,64.5257774 C62.8059814,64.5257774 66.4615385,60.7872707 66.4615385,56.1894846 L66.4615385,27.3362928 C66.4615385,22.7385067 62.8059814,19 58.3133457,19 L8.15132789,19 Z" id="Credit-card"></path>
            </g>
        </g>
    </g>
</svg>